<mxfile host="app.diagrams.net" modified="2022-05-21T13:37:12.200Z" agent="5.0 (Windows NT 10.0; Win64; x64) AppleWebKit/537.36 (KHTML, like Gecko) Chrome/101.0.4951.64 Safari/537.36 Edg/101.0.1210.47" etag="fPHlhoQTFo20eSsrEwFf" version="18.0.8" type="github">
  <diagram id="TUYOXXvFCsU8Bt_Coby8" name="第 1 页">
    <mxGraphModel dx="1422" dy="761" grid="1" gridSize="10" guides="1" tooltips="1" connect="1" arrows="1" fold="1" page="1" pageScale="1" pageWidth="1169" pageHeight="827" math="0" shadow="0">
      <root>
        <mxCell id="0" />
        <mxCell id="1" parent="0" />
        <mxCell id="uiMAfWaznwxs1aXPlk0b-8" value="" style="strokeWidth=2;html=1;shape=mxgraph.flowchart.annotation_1;align=left;pointerEvents=1;rotation=90;" parent="1" vertex="1">
          <mxGeometry x="599.13" y="215" width="32" height="50" as="geometry" />
        </mxCell>
        <mxCell id="uiMAfWaznwxs1aXPlk0b-11" value="个人博客系统" style="whiteSpace=wrap;html=1;align=center;" parent="1" vertex="1">
          <mxGeometry x="465.69000000000005" y="170" width="98.87" height="30" as="geometry" />
        </mxCell>
        <mxCell id="uiMAfWaznwxs1aXPlk0b-13" value="" style="strokeWidth=2;html=1;shape=mxgraph.flowchart.annotation_1;align=left;pointerEvents=1;rotation=90;" parent="1" vertex="1">
          <mxGeometry x="499.13" y="215" width="32" height="50" as="geometry" />
        </mxCell>
        <mxCell id="uiMAfWaznwxs1aXPlk0b-15" value="" style="strokeWidth=2;html=1;shape=mxgraph.flowchart.annotation_1;align=left;pointerEvents=1;rotation=90;" parent="1" vertex="1">
          <mxGeometry x="399.13" y="215" width="32" height="50" as="geometry" />
        </mxCell>
        <mxCell id="uiMAfWaznwxs1aXPlk0b-16" value="后&lt;br&gt;台&lt;br&gt;登&lt;br&gt;录&lt;br&gt;模&lt;br&gt;块" style="whiteSpace=wrap;html=1;align=center;rotation=90;horizontal=0;" parent="1" vertex="1">
          <mxGeometry x="320" y="305" width="140" height="30" as="geometry" />
        </mxCell>
        <mxCell id="uiMAfWaznwxs1aXPlk0b-17" value="文&lt;br&gt;章&lt;br&gt;模&lt;br&gt;块" style="whiteSpace=wrap;html=1;align=center;rotation=90;horizontal=0;" parent="1" vertex="1">
          <mxGeometry x="419.13" y="305" width="140" height="30" as="geometry" />
        </mxCell>
        <mxCell id="uiMAfWaznwxs1aXPlk0b-21" value="" style="strokeWidth=2;html=1;shape=mxgraph.flowchart.annotation_1;align=left;pointerEvents=1;rotation=90;" parent="1" vertex="1">
          <mxGeometry x="549.13" y="215" width="32" height="50" as="geometry" />
        </mxCell>
        <mxCell id="uiMAfWaznwxs1aXPlk0b-18" value="分&lt;br&gt;类&lt;br&gt;模&lt;br&gt;块" style="whiteSpace=wrap;html=1;align=center;rotation=90;horizontal=0;" parent="1" vertex="1">
          <mxGeometry x="469.13" y="305" width="140" height="30" as="geometry" />
        </mxCell>
        <mxCell id="uiMAfWaznwxs1aXPlk0b-19" value="标&lt;br&gt;签&lt;br&gt;模&lt;br&gt;块" style="whiteSpace=wrap;html=1;align=center;rotation=90;horizontal=0;" parent="1" vertex="1">
          <mxGeometry x="523.13" y="305" width="140" height="30" as="geometry" />
        </mxCell>
        <mxCell id="uiMAfWaznwxs1aXPlk0b-22" value="" style="endArrow=none;html=1;rounded=0;fontStyle=1;strokeWidth=2;" parent="1" edge="1">
          <mxGeometry width="50" height="50" relative="1" as="geometry">
            <mxPoint x="514.99" y="223" as="sourcePoint" />
            <mxPoint x="514.99" y="200" as="targetPoint" />
          </mxGeometry>
        </mxCell>
        <mxCell id="nyHIGpQQyGAdd-AkS5RU-1" value="" style="strokeWidth=2;html=1;shape=mxgraph.flowchart.annotation_1;align=left;pointerEvents=1;rotation=90;" vertex="1" parent="1">
          <mxGeometry x="449.13" y="215" width="32" height="50" as="geometry" />
        </mxCell>
        <mxCell id="nyHIGpQQyGAdd-AkS5RU-2" value="用&lt;br&gt;户&lt;br&gt;模&lt;br&gt;块" style="whiteSpace=wrap;html=1;align=center;rotation=90;horizontal=0;" vertex="1" parent="1">
          <mxGeometry x="370" y="305" width="140" height="30" as="geometry" />
        </mxCell>
        <mxCell id="uiMAfWaznwxs1aXPlk0b-20" value="评&lt;br&gt;论&lt;br&gt;模&lt;br&gt;块" style="whiteSpace=wrap;html=1;align=center;rotation=90;horizontal=0;" parent="1" vertex="1">
          <mxGeometry x="569.13" y="305" width="140" height="30" as="geometry" />
        </mxCell>
      </root>
    </mxGraphModel>
  </diagram>
</mxfile>
